<svg width="17" height="16" viewBox="0 0 17 16" fill="none" xmlns="http://www.w3.org/2000/svg">
<path d="M8.50004 14.6663C12.1819 14.6663 15.1667 11.6816 15.1667 7.99967C15.1667 4.31778 12.1819 1.33301 8.50004 1.33301C4.81814 1.33301 1.83337 4.31778 1.83337 7.99967C1.83337 11.6816 4.81814 14.6663 8.50004 14.6663Z" stroke="#7326F1" stroke-width="1.5" stroke-linecap="round" stroke-linejoin="round"/>
<path d="M5.83336 2H6.50002C5.20002 5.89333 5.20002 10.1067 6.50002 14H5.83336" stroke="#7326F1" stroke-width="1.5" stroke-linecap="round" stroke-linejoin="round"/>
<path d="M10.5 2C11.8 5.89333 11.8 10.1067 10.5 14" stroke="#7326F1" stroke-width="1.5" stroke-linecap="round" stroke-linejoin="round"/>
<path d="M2.5 10.6667V10C6.39333 11.3 10.6067 11.3 14.5 10V10.6667" stroke="#7326F1" stroke-width="1.5" stroke-linecap="round" stroke-linejoin="round"/>
<path d="M2.5 6.00039C6.39333 4.70039 10.6067 4.70039 14.5 6.00039" stroke="#7326F1" stroke-width="1.5" stroke-linecap="round" stroke-linejoin="round"/>
</svg>
