<svg width="91" height="88" viewBox="0 0 91 88" fill="none" xmlns="http://www.w3.org/2000/svg">
<g id="Frame" clip-path="url(#clip0_31_4619)">
<g id="Clip path group">
<mask id="mask0_31_4619" style="mask-type:luminance" maskUnits="userSpaceOnUse" x="0" y="0" width="91" height="88">
<g id="clip0_28_2112">
<path id="Vector" d="M91 44C91 19.6995 70.629 0 45.5 0C20.371 0 0 19.6995 0 44C0 68.3005 20.371 88 45.5 88C70.629 88 91 68.3005 91 44Z" fill="white"/>
</g>
</mask>
<g mask="url(#mask0_31_4619)">
<g id="Group">
<path id="Vector_2" d="M91 44C91 19.6995 70.629 0 45.5 0C20.371 0 0 19.6995 0 44C0 68.3005 20.371 88 45.5 88C70.629 88 91 68.3005 91 44Z" fill="white"/>
<g id="Clip path group_2">
<mask id="mask1_31_4619" style="mask-type:luminance" maskUnits="userSpaceOnUse" x="9" y="35" width="75" height="18">
<g id="clip1_28_2112">
<path id="Vector_3" d="M83.0376 35.2H9.1001V52.8H83.0376V35.2Z" fill="white"/>
</g>
</mask>
<g mask="url(#mask1_31_4619)">
<g id="Group_2">
<path id="Vector_4" d="M10.0401 48.4V46.904H15.5912C16.0187 46.904 16.3852 46.8102 16.6905 46.6224C16.9958 46.423 17.234 46.1706 17.405 45.8656C17.5761 45.5606 17.6615 45.2378 17.6615 44.8976C17.6615 44.5456 17.5761 44.223 17.405 43.9296C17.2462 43.6246 17.0141 43.384 16.7088 43.208C16.4157 43.0202 16.0553 42.9264 15.6279 42.9264H13.2095C12.4889 42.9264 11.8539 42.7856 11.3042 42.504C10.7546 42.2106 10.321 41.8118 10.0034 41.3072C9.69808 40.791 9.54541 40.2102 9.54541 39.5648C9.54541 38.9078 9.69198 38.3152 9.98511 37.7872C10.2904 37.2592 10.7118 36.8426 11.2492 36.5376C11.7988 36.2326 12.4279 36.08 13.1363 36.08H18.5775V37.576H13.3012C12.8981 37.576 12.5439 37.6698 12.2386 37.8576C11.9333 38.0336 11.7011 38.2682 11.5424 38.5616C11.3836 38.8432 11.3042 39.1482 11.3042 39.4768C11.3042 39.7936 11.3775 40.0986 11.524 40.392C11.6828 40.6736 11.9088 40.9024 12.2019 41.0784C12.5073 41.2544 12.8553 41.3424 13.2462 41.3424H15.7196C16.489 41.3424 17.1486 41.489 17.6981 41.7824C18.2478 42.0758 18.6692 42.4746 18.9623 42.9792C19.2555 43.4838 19.402 44.0586 19.402 44.704C19.402 45.4198 19.2493 46.0592 18.944 46.6224C18.6509 47.1738 18.2294 47.608 17.6798 47.9248C17.1303 48.2416 16.5011 48.4 15.7928 48.4H10.0401ZM26.2531 39.2128C26.9615 39.2128 27.6089 39.3242 28.1952 39.5472C28.7814 39.7584 29.2882 40.0752 29.7158 40.4976C30.1433 40.92 30.473 41.4304 30.7051 42.0288C30.9493 42.6154 31.0715 43.2784 31.0715 44.0176C31.0715 44.9446 30.87 45.7542 30.4669 46.4464C30.0761 47.1386 29.5387 47.6726 28.8547 48.048C28.1706 48.4234 27.3951 48.6112 26.528 48.6112C26.0516 48.6112 25.5936 48.535 25.1539 48.3824C24.7264 48.2298 24.3416 48.0186 23.9996 47.7488C23.6699 47.4672 23.4012 47.1504 23.1936 46.7984H23.1569V52.272H21.4714V43.9648C21.4714 42.9558 21.679 42.0992 22.0943 41.3952C22.5218 40.6912 23.0958 40.1514 23.8165 39.776C24.5371 39.4006 25.3493 39.2128 26.2531 39.2128ZM26.2531 40.6032C25.6913 40.6032 25.1722 40.7382 24.6959 41.008C24.2317 41.2778 23.8592 41.6592 23.5783 42.152C23.3095 42.6448 23.1753 43.2256 23.1753 43.8944C23.1753 44.575 23.3095 45.1674 23.5783 45.672C23.8592 46.1648 24.2317 46.5462 24.6959 46.816C25.1722 47.0858 25.6974 47.2208 26.2715 47.2208C26.8577 47.2208 27.3829 47.08 27.847 46.7984C28.3111 46.5168 28.6776 46.1296 28.9463 45.6368C29.2271 45.144 29.3676 44.569 29.3676 43.912C29.3676 43.2314 29.2271 42.6448 28.9463 42.152C28.6653 41.6592 28.2868 41.2778 27.8104 41.008C27.3463 40.7382 26.8271 40.6032 26.2531 40.6032ZM37.9725 48.4C36.9464 48.4 36.0366 48.2182 35.2426 47.8544C34.4487 47.479 33.8258 46.9568 33.3739 46.288C32.9343 45.6074 32.7144 44.8154 32.7144 43.912C32.7144 43.0202 32.9037 42.2224 33.2823 41.5184C33.6609 40.8026 34.1861 40.2394 34.8579 39.8288C35.5296 39.4182 36.3114 39.2128 37.2029 39.2128C38.1678 39.2128 38.9679 39.4122 39.603 39.8112C40.2503 40.2102 40.7327 40.7498 41.0503 41.4304C41.3679 42.0992 41.5267 42.8502 41.5267 43.6832C41.5267 43.8122 41.5206 43.9472 41.5084 44.088C41.5084 44.2288 41.4961 44.352 41.4716 44.4576H34.5098C34.5709 45.009 34.7602 45.4784 35.0778 45.8656C35.3952 46.241 35.7984 46.5286 36.2869 46.728C36.7876 46.9158 37.3373 47.0096 37.9358 47.0096H40.3725V48.4H37.9725ZM34.4915 43.3136H39.8228C39.8228 43.0906 39.7984 42.856 39.7496 42.6096C39.7007 42.3514 39.6151 42.105 39.4931 41.8704C39.3709 41.624 39.206 41.407 38.9984 41.2192C38.803 41.0198 38.5526 40.8614 38.2473 40.744C37.9542 40.6266 37.606 40.568 37.2029 40.568C36.7755 40.568 36.3968 40.6502 36.067 40.8144C35.7494 40.967 35.4746 41.1782 35.2426 41.448C35.0105 41.7062 34.8334 41.9994 34.7114 42.328C34.5892 42.6566 34.5158 42.985 34.4915 43.3136ZM43.6759 48.4V43.208C43.6759 42.4102 43.8591 41.712 44.2255 41.1136C44.6042 40.5152 45.1232 40.0518 45.7828 39.7232C46.4423 39.383 47.1935 39.2128 48.0363 39.2128C48.8912 39.2128 49.6424 39.383 50.2897 39.7232C50.9493 40.0518 51.4622 40.5152 51.8287 41.1136C52.2073 41.712 52.3965 42.4102 52.3965 43.208V48.4H50.7111V43.2256C50.7111 42.6858 50.5828 42.2224 50.3263 41.8352C50.0821 41.4362 49.7523 41.1312 49.337 40.92C48.934 40.7088 48.5004 40.6032 48.0363 40.6032C47.5722 40.6032 47.1324 40.7088 46.7171 40.92C46.3141 41.1312 45.9843 41.4362 45.7278 41.8352C45.4836 42.2224 45.3614 42.6858 45.3614 43.2256V48.4H43.6759ZM59.3782 48.6112C58.6697 48.6112 58.0224 48.5056 57.4361 48.2944C56.8498 48.0714 56.343 47.7488 55.9155 47.3264C55.488 46.904 55.1521 46.3994 54.9078 45.8128C54.6757 45.2144 54.5597 44.5456 54.5597 43.8064C54.5597 42.8678 54.7551 42.0582 55.146 41.3776C55.5491 40.6854 56.0926 40.1514 56.7766 39.776C57.4727 39.4006 58.2483 39.2128 59.1033 39.2128C59.5796 39.2128 60.0315 39.289 60.459 39.4416C60.8988 39.5942 61.2895 39.8054 61.6316 40.0752C61.9736 40.345 62.2423 40.6618 62.4377 41.0256H62.4743V35.552H64.1599V43.8592C64.1599 44.8566 63.946 45.713 63.5187 46.4288C63.1034 47.1328 62.5354 47.6726 61.8148 48.048C61.1064 48.4234 60.2942 48.6112 59.3782 48.6112ZM59.3782 47.2208C59.9522 47.2208 60.4713 47.0858 60.9354 46.816C61.3995 46.5462 61.7659 46.1648 62.0347 45.672C62.3155 45.1792 62.456 44.5984 62.456 43.9296C62.456 43.249 62.3155 42.6624 62.0347 42.1696C61.7659 41.665 61.3995 41.2778 60.9354 41.008C60.4713 40.7382 59.946 40.6032 59.3597 40.6032C58.7858 40.6032 58.2606 40.744 57.7842 41.0256C57.3201 41.3072 56.9476 41.6944 56.6666 42.1872C56.3979 42.68 56.2636 43.255 56.2636 43.912C56.2636 44.5926 56.4041 45.1792 56.6849 45.672C56.9659 46.1648 57.3384 46.5462 57.8025 46.816C58.2789 47.0858 58.8041 47.2208 59.3782 47.2208ZM71.5188 48.4C70.4928 48.4 69.5829 48.2182 68.7889 47.8544C67.9951 47.479 67.3722 46.9568 66.9202 46.288C66.4806 45.6074 66.2607 44.8154 66.2607 43.912C66.2607 43.0202 66.45 42.2224 66.8287 41.5184C67.2074 40.8026 67.7324 40.2394 68.4042 39.8288C69.076 39.4182 69.8577 39.2128 70.7493 39.2128C71.7142 39.2128 72.5142 39.4122 73.1493 39.8112C73.7967 40.2102 74.2792 40.7498 74.5969 41.4304C74.9143 42.0992 75.0733 42.8502 75.0733 43.6832C75.0733 43.8122 75.0668 43.9472 75.055 44.088C75.055 44.2288 75.0426 44.352 75.0183 44.4576H68.0562C68.1172 45.009 68.3065 45.4784 68.6241 45.8656C68.9416 46.241 69.3447 46.5286 69.8333 46.728C70.334 46.9158 70.8836 47.0096 71.4822 47.0096H73.9188V48.4H71.5188ZM68.0378 43.3136H73.3692C73.3692 43.0906 73.3447 42.856 73.2959 42.6096C73.247 42.3514 73.1616 42.105 73.0394 41.8704C72.9173 41.624 72.7523 41.407 72.5447 41.2192C72.3493 41.0198 72.0989 40.8614 71.7936 40.744C71.5005 40.6266 71.1523 40.568 70.7493 40.568C70.3218 40.568 69.9432 40.6502 69.6134 40.8144C69.2959 40.967 69.0211 41.1782 68.7889 41.448C68.5569 41.7062 68.3799 41.9994 68.2577 42.328C68.1356 42.6566 68.0622 42.985 68.0378 43.3136ZM81.7473 48.4C80.7828 48.4 79.9218 48.2006 79.1641 47.8016C78.4071 47.4026 77.8083 46.8688 77.3686 46.2C76.9289 45.5194 76.7091 44.7568 76.7091 43.912C76.7091 43.0672 76.9289 42.3104 77.3686 41.6416C77.8083 40.961 78.4071 40.4214 79.1641 40.0224C79.9218 39.6234 80.7828 39.424 81.7473 39.424H82.8465V40.8144H81.6923C81.0694 40.8144 80.508 40.9552 80.0068 41.2368C79.5187 41.5066 79.1274 41.8762 78.8343 42.3456C78.5536 42.815 78.4129 43.337 78.4129 43.912C78.4129 44.487 78.5536 45.009 78.8343 45.4784C79.1274 45.9478 79.5187 46.3232 80.0068 46.6048C80.508 46.8746 81.0694 47.0096 81.6923 47.0096H82.8465V48.4H81.7473Z" fill="#7326F1"/>
</g>
</g>
</g>
<path id="Vector_5" d="M2.55029 59.7915C9.16058 54.6929 16.2972 49.9017 23.6773 52.0729C35.1409 55.4455 39.238 70.5626 50.326 74.2475C62.4497 78.2765 73.0222 61.4331 80.4791 50.887C84.1726 45.6632 87.1265 40.1722 90.5044 34.7326" stroke="#7326F1" stroke-width="1.2" stroke-linecap="round"/>
</g>
</g>
</g>
</g>
<defs>
<clipPath id="clip0_31_4619">
<rect width="91" height="88" fill="white"/>
</clipPath>
</defs>
</svg>
