<svg width="92" height="88" viewBox="0 0 92 88" fill="none" xmlns="http://www.w3.org/2000/svg">
<g clip-path="url(#clip0_62_1608)">
<mask id="mask0_62_1608" style="mask-type:luminance" maskUnits="userSpaceOnUse" x="0" y="0" width="92" height="88">
<path d="M91.5 44C91.5 19.6995 71.129 0 46 0C20.871 0 0.5 19.6995 0.5 44C0.5 68.3005 20.871 88 46 88C71.129 88 91.5 68.3005 91.5 44Z" fill="white"/>
</mask>
<g mask="url(#mask0_62_1608)">
<path d="M91.5 44C91.5 19.6995 71.129 0 46 0C20.871 0 0.5 19.6995 0.5 44C0.5 68.3005 20.871 88 46 88C71.129 88 91.5 68.3005 91.5 44Z" fill="white"/>
<mask id="mask1_62_1608" style="mask-type:luminance" maskUnits="userSpaceOnUse" x="9" y="35" width="75" height="18">
<path d="M83.5376 35.2H9.6001V52.8H83.5376V35.2Z" fill="white"/>
</mask>
<g mask="url(#mask1_62_1608)">
<path d="M10.5401 48.4V46.904H16.0912C16.5187 46.904 16.8852 46.8102 17.1905 46.6224C17.4958 46.423 17.734 46.1706 17.905 45.8656C18.0761 45.5606 18.1615 45.2378 18.1615 44.8976C18.1615 44.5456 18.0761 44.223 17.905 43.9296C17.7462 43.6246 17.5141 43.384 17.2088 43.208C16.9157 43.0202 16.5553 42.9264 16.1279 42.9264H13.7095C12.9889 42.9264 12.3539 42.7856 11.8042 42.504C11.2546 42.2106 10.821 41.8118 10.5034 41.3072C10.1981 40.791 10.0454 40.2102 10.0454 39.5648C10.0454 38.9078 10.192 38.3152 10.4851 37.7872C10.7904 37.2592 11.2118 36.8426 11.7492 36.5376C12.2988 36.2326 12.9279 36.08 13.6363 36.08H19.0775V37.576H13.8012C13.3981 37.576 13.0439 37.6698 12.7386 37.8576C12.4333 38.0336 12.2011 38.2682 12.0424 38.5616C11.8836 38.8432 11.8042 39.1482 11.8042 39.4768C11.8042 39.7936 11.8775 40.0986 12.024 40.392C12.1828 40.6736 12.4088 40.9024 12.7019 41.0784C13.0073 41.2544 13.3553 41.3424 13.7462 41.3424H16.2196C16.989 41.3424 17.6486 41.489 18.1981 41.7824C18.7478 42.0758 19.1692 42.4746 19.4623 42.9792C19.7555 43.4838 19.902 44.0586 19.902 44.704C19.902 45.4198 19.7493 46.0592 19.444 46.6224C19.1509 47.1738 18.7294 47.608 18.1798 47.9248C17.6303 48.2416 17.0011 48.4 16.2928 48.4H10.5401ZM26.7531 39.2128C27.4615 39.2128 28.1089 39.3242 28.6952 39.5472C29.2814 39.7584 29.7882 40.0752 30.2158 40.4976C30.6433 40.92 30.973 41.4304 31.2051 42.0288C31.4493 42.6154 31.5715 43.2784 31.5715 44.0176C31.5715 44.9446 31.37 45.7542 30.9669 46.4464C30.5761 47.1386 30.0387 47.6726 29.3547 48.048C28.6706 48.4234 27.8951 48.6112 27.028 48.6112C26.5516 48.6112 26.0936 48.535 25.6539 48.3824C25.2264 48.2298 24.8416 48.0186 24.4996 47.7488C24.1699 47.4672 23.9012 47.1504 23.6936 46.7984H23.6569V52.272H21.9714V43.9648C21.9714 42.9558 22.179 42.0992 22.5943 41.3952C23.0218 40.6912 23.5958 40.1514 24.3165 39.776C25.0371 39.4006 25.8493 39.2128 26.7531 39.2128ZM26.7531 40.6032C26.1913 40.6032 25.6722 40.7382 25.1959 41.008C24.7317 41.2778 24.3592 41.6592 24.0783 42.152C23.8095 42.6448 23.6753 43.2256 23.6753 43.8944C23.6753 44.575 23.8095 45.1674 24.0783 45.672C24.3592 46.1648 24.7317 46.5462 25.1959 46.816C25.6722 47.0858 26.1974 47.2208 26.7715 47.2208C27.3577 47.2208 27.8829 47.08 28.347 46.7984C28.8111 46.5168 29.1776 46.1296 29.4463 45.6368C29.7271 45.144 29.8676 44.569 29.8676 43.912C29.8676 43.2314 29.7271 42.6448 29.4463 42.152C29.1653 41.6592 28.7868 41.2778 28.3104 41.008C27.8463 40.7382 27.3271 40.6032 26.7531 40.6032ZM38.4725 48.4C37.4464 48.4 36.5366 48.2182 35.7426 47.8544C34.9487 47.479 34.3258 46.9568 33.8739 46.288C33.4343 45.6074 33.2144 44.8154 33.2144 43.912C33.2144 43.0202 33.4037 42.2224 33.7823 41.5184C34.1609 40.8026 34.6861 40.2394 35.3579 39.8288C36.0296 39.4182 36.8114 39.2128 37.7029 39.2128C38.6678 39.2128 39.4679 39.4122 40.103 39.8112C40.7503 40.2102 41.2327 40.7498 41.5503 41.4304C41.8679 42.0992 42.0267 42.8502 42.0267 43.6832C42.0267 43.8122 42.0206 43.9472 42.0084 44.088C42.0084 44.2288 41.9961 44.352 41.9716 44.4576H35.0098C35.0709 45.009 35.2602 45.4784 35.5778 45.8656C35.8952 46.241 36.2984 46.5286 36.7869 46.728C37.2876 46.9158 37.8373 47.0096 38.4358 47.0096H40.8725V48.4H38.4725ZM34.9915 43.3136H40.3228C40.3228 43.0906 40.2984 42.856 40.2496 42.6096C40.2007 42.3514 40.1151 42.105 39.9931 41.8704C39.8709 41.624 39.706 41.407 39.4984 41.2192C39.303 41.0198 39.0526 40.8614 38.7473 40.744C38.4542 40.6266 38.106 40.568 37.7029 40.568C37.2755 40.568 36.8968 40.6502 36.567 40.8144C36.2494 40.967 35.9746 41.1782 35.7426 41.448C35.5105 41.7062 35.3334 41.9994 35.2114 42.328C35.0892 42.6566 35.0158 42.985 34.9915 43.3136ZM44.1759 48.4V43.208C44.1759 42.4102 44.3591 41.712 44.7255 41.1136C45.1042 40.5152 45.6232 40.0518 46.2828 39.7232C46.9423 39.383 47.6935 39.2128 48.5363 39.2128C49.3912 39.2128 50.1424 39.383 50.7897 39.7232C51.4493 40.0518 51.9622 40.5152 52.3287 41.1136C52.7073 41.712 52.8965 42.4102 52.8965 43.208V48.4H51.2111V43.2256C51.2111 42.6858 51.0828 42.2224 50.8263 41.8352C50.5821 41.4362 50.2523 41.1312 49.837 40.92C49.434 40.7088 49.0004 40.6032 48.5363 40.6032C48.0722 40.6032 47.6324 40.7088 47.2171 40.92C46.8141 41.1312 46.4843 41.4362 46.2278 41.8352C45.9836 42.2224 45.8614 42.6858 45.8614 43.2256V48.4H44.1759ZM59.8782 48.6112C59.1697 48.6112 58.5224 48.5056 57.9361 48.2944C57.3498 48.0714 56.843 47.7488 56.4155 47.3264C55.988 46.904 55.6521 46.3994 55.4078 45.8128C55.1757 45.2144 55.0597 44.5456 55.0597 43.8064C55.0597 42.8678 55.2551 42.0582 55.646 41.3776C56.0491 40.6854 56.5926 40.1514 57.2766 39.776C57.9727 39.4006 58.7483 39.2128 59.6033 39.2128C60.0796 39.2128 60.5315 39.289 60.959 39.4416C61.3988 39.5942 61.7895 39.8054 62.1316 40.0752C62.4736 40.345 62.7423 40.6618 62.9377 41.0256H62.9743V35.552H64.6599V43.8592C64.6599 44.8566 64.446 45.713 64.0187 46.4288C63.6034 47.1328 63.0354 47.6726 62.3148 48.048C61.6064 48.4234 60.7942 48.6112 59.8782 48.6112ZM59.8782 47.2208C60.4522 47.2208 60.9713 47.0858 61.4354 46.816C61.8995 46.5462 62.2659 46.1648 62.5347 45.672C62.8155 45.1792 62.956 44.5984 62.956 43.9296C62.956 43.249 62.8155 42.6624 62.5347 42.1696C62.2659 41.665 61.8995 41.2778 61.4354 41.008C60.9713 40.7382 60.446 40.6032 59.8597 40.6032C59.2858 40.6032 58.7606 40.744 58.2842 41.0256C57.8201 41.3072 57.4476 41.6944 57.1666 42.1872C56.8979 42.68 56.7636 43.255 56.7636 43.912C56.7636 44.5926 56.9041 45.1792 57.1849 45.672C57.4659 46.1648 57.8384 46.5462 58.3025 46.816C58.7789 47.0858 59.3041 47.2208 59.8782 47.2208ZM72.0188 48.4C70.9928 48.4 70.0829 48.2182 69.2889 47.8544C68.4951 47.479 67.8722 46.9568 67.4202 46.288C66.9806 45.6074 66.7607 44.8154 66.7607 43.912C66.7607 43.0202 66.95 42.2224 67.3287 41.5184C67.7074 40.8026 68.2324 40.2394 68.9042 39.8288C69.576 39.4182 70.3577 39.2128 71.2493 39.2128C72.2142 39.2128 73.0142 39.4122 73.6493 39.8112C74.2967 40.2102 74.7792 40.7498 75.0969 41.4304C75.4143 42.0992 75.5733 42.8502 75.5733 43.6832C75.5733 43.8122 75.5668 43.9472 75.555 44.088C75.555 44.2288 75.5426 44.352 75.5183 44.4576H68.5562C68.6172 45.009 68.8065 45.4784 69.1241 45.8656C69.4416 46.241 69.8447 46.5286 70.3333 46.728C70.834 46.9158 71.3836 47.0096 71.9822 47.0096H74.4188V48.4H72.0188ZM68.5378 43.3136H73.8692C73.8692 43.0906 73.8447 42.856 73.7959 42.6096C73.747 42.3514 73.6616 42.105 73.5394 41.8704C73.4173 41.624 73.2523 41.407 73.0447 41.2192C72.8493 41.0198 72.5989 40.8614 72.2936 40.744C72.0005 40.6266 71.6523 40.568 71.2493 40.568C70.8218 40.568 70.4432 40.6502 70.1134 40.8144C69.7959 40.967 69.5211 41.1782 69.2889 41.448C69.0569 41.7062 68.8799 41.9994 68.7577 42.328C68.6356 42.6566 68.5622 42.985 68.5378 43.3136ZM82.2473 48.4C81.2828 48.4 80.4218 48.2006 79.6641 47.8016C78.9071 47.4026 78.3083 46.8688 77.8686 46.2C77.4289 45.5194 77.2091 44.7568 77.2091 43.912C77.2091 43.0672 77.4289 42.3104 77.8686 41.6416C78.3083 40.961 78.9071 40.4214 79.6641 40.0224C80.4218 39.6234 81.2828 39.424 82.2473 39.424H83.3465V40.8144H82.1923C81.5694 40.8144 81.008 40.9552 80.5068 41.2368C80.0187 41.5066 79.6274 41.8762 79.3343 42.3456C79.0536 42.815 78.9129 43.337 78.9129 43.912C78.9129 44.487 79.0536 45.009 79.3343 45.4784C79.6274 45.9478 80.0187 46.3232 80.5068 46.6048C81.008 46.8746 81.5694 47.0096 82.1923 47.0096H83.3465V48.4H82.2473Z" fill="#7326F1"/>
</g>
<path d="M3.05029 59.7915C9.66058 54.6929 16.7972 49.9017 24.1773 52.0729C35.6409 55.4455 39.738 70.5626 50.826 74.2475C62.9497 78.2765 73.5222 61.4331 80.9791 50.887C84.6726 45.6632 87.6265 40.1722 91.0044 34.7326" stroke="#7326F1" stroke-width="1.2" stroke-linecap="round"/>
</g>
</g>
<defs>
<clipPath id="clip0_62_1608">
<rect width="91" height="88" fill="white" transform="translate(0.5)"/>
</clipPath>
</defs>
</svg>
