<svg width="107" height="103" viewBox="0 0 107 103" fill="none" xmlns="http://www.w3.org/2000/svg">
<g id="purple-circle-logo" clip-path="url(#clip0_62_1256)">
<g id="Clip path group">
<mask id="mask0_62_1256" style="mask-type:luminance" maskUnits="userSpaceOnUse" x="0" y="0" width="107" height="103">
<g id="clip0_28_2112">
<path id="Vector" d="M107 51.5C107 23.0573 83.0472 0 53.5 0C23.9528 0 0 23.0573 0 51.5C0 79.9427 23.9528 103 53.5 103C83.0472 103 107 79.9427 107 51.5Z" fill="white"/>
</g>
</mask>
<g mask="url(#mask0_62_1256)">
<g id="Group">
<path id="Vector_2" d="M107 51.5C107 23.0573 83.0472 0 53.5 0C23.9528 0 0 23.0573 0 51.5C0 79.9427 23.9528 103 53.5 103C83.0472 103 107 79.9427 107 51.5Z" fill="#7326F1"/>
<g id="Clip path group_2">
<mask id="mask1_62_1256" style="mask-type:luminance" maskUnits="userSpaceOnUse" x="10" y="41" width="88" height="21">
<g id="clip1_28_2112">
<path id="Vector_3" d="M97.6375 41.2H10.7V61.7999H97.6375V41.2Z" fill="white"/>
</g>
</mask>
<g mask="url(#mask1_62_1256)">
<g id="Group_2">
<path id="Vector_4" d="M11.8053 56.6499V54.8989H18.3325C18.8351 54.8989 19.266 54.7891 19.625 54.5693C19.984 54.3359 20.2641 54.0406 20.4651 53.6835C20.6663 53.3265 20.7667 52.9488 20.7667 52.5505C20.7667 52.1385 20.6663 51.7609 20.4651 51.4175C20.2784 51.0605 20.0055 50.7789 19.6466 50.5729C19.3019 50.3532 18.8782 50.2433 18.3755 50.2433H15.532C14.6847 50.2433 13.938 50.0785 13.2917 49.7489C12.6454 49.4056 12.1356 48.9387 11.7622 48.3481C11.4032 47.7439 11.2236 47.0641 11.2236 46.3087C11.2236 45.5397 11.396 44.8461 11.7406 44.2281C12.0997 43.6101 12.5951 43.1226 13.227 42.7655C13.8732 42.4085 14.6129 42.2299 15.4459 42.2299H21.8438V43.9809H15.6398C15.1658 43.9809 14.7493 44.0908 14.3903 44.3105C14.0313 44.5165 13.7584 44.7912 13.5718 45.1345C13.3851 45.4641 13.2917 45.8212 13.2917 46.2057C13.2917 46.5765 13.3778 46.9336 13.5501 47.2769C13.7368 47.6065 14.0026 47.8743 14.3473 48.0803C14.7062 48.2863 15.1155 48.3893 15.5751 48.3893H18.4833C19.388 48.3893 20.1636 48.561 20.8098 48.9043C21.4561 49.2477 21.9516 49.7146 22.2963 50.3051C22.641 50.8957 22.8132 51.5686 22.8132 52.3239C22.8132 53.1617 22.6337 53.9101 22.2748 54.5693C21.9301 55.2148 21.4345 55.7229 20.7883 56.0937C20.1421 56.4645 19.4023 56.6499 18.5695 56.6499H11.8053ZM30.869 45.8967C31.7019 45.8967 32.4632 46.0272 33.1525 46.2881C33.8417 46.5353 34.4377 46.9061 34.9405 47.4005C35.4431 47.8949 35.8308 48.4923 36.1037 49.1927C36.3909 49.8794 36.5345 50.6553 36.5345 51.5205C36.5345 52.6055 36.2976 53.5531 35.8236 54.3633C35.3641 55.1736 34.7322 55.7985 33.928 56.2379C33.1236 56.6774 32.2117 56.8971 31.1921 56.8971C30.632 56.8971 30.0935 56.8079 29.5764 56.6293C29.0738 56.4508 28.6213 56.2036 28.2193 55.8877C27.8315 55.5581 27.5156 55.1873 27.2715 54.7753H27.2283V61.1819H25.2465V51.4587C25.2465 50.2777 25.4906 49.2751 25.979 48.4511C26.4816 47.6271 27.1565 46.9954 28.0039 46.5559C28.8512 46.1165 29.8062 45.8967 30.869 45.8967ZM30.869 47.5241C30.2084 47.5241 29.598 47.6821 29.038 47.9979C28.4921 48.3138 28.0541 48.7601 27.7239 49.3369C27.4078 49.9137 27.25 50.5935 27.25 51.3763C27.25 52.1729 27.4078 52.8664 27.7239 53.4569C28.0541 54.0337 28.4921 54.4801 29.038 54.7959C29.598 55.1118 30.2155 55.2697 30.8905 55.2697C31.5799 55.2697 32.1974 55.1049 32.7431 54.7753C33.2888 54.4457 33.7197 53.9925 34.0357 53.4157C34.3659 52.8389 34.5311 52.166 34.5311 51.3969C34.5311 50.6004 34.3659 49.9137 34.0357 49.3369C33.7053 48.7601 33.2602 48.3138 32.7 47.9979C32.1543 47.6821 31.5439 47.5241 30.869 47.5241ZM44.6489 56.6499C43.4424 56.6499 42.3726 56.4371 41.439 56.0113C40.5055 55.5719 39.7731 54.9607 39.2417 54.1779C38.7248 53.3814 38.4663 52.4544 38.4663 51.3969C38.4663 50.3532 38.6888 49.4193 39.1341 48.5953C39.5792 47.7576 40.1967 47.0984 40.9866 46.6177C41.7764 46.1371 42.6957 45.8967 43.744 45.8967C44.8785 45.8967 45.8193 46.1302 46.566 46.5971C47.3272 47.0641 47.8944 47.6958 48.2679 48.4923C48.6413 49.2751 48.828 50.1541 48.828 51.1291C48.828 51.2802 48.8208 51.4381 48.8065 51.6029C48.8065 51.7677 48.792 51.9119 48.7633 52.0355H40.5774C40.6492 52.681 40.8717 53.2303 41.2452 53.6835C41.6185 54.123 42.0925 54.4595 42.6669 54.6929C43.2557 54.9127 43.902 55.0225 44.6058 55.0225H47.4708V56.6499H44.6489ZM40.5558 50.6965H46.8246C46.8246 50.4356 46.7958 50.1609 46.7384 49.8725C46.6809 49.5704 46.5803 49.282 46.4368 49.0073C46.2932 48.7189 46.0992 48.4649 45.8551 48.2451C45.6254 48.0117 45.331 47.8263 44.972 47.6889C44.6273 47.5516 44.2179 47.4829 43.744 47.4829C43.2414 47.4829 42.7961 47.5791 42.4084 47.7713C42.035 47.9499 41.7118 48.1971 41.439 48.5129C41.1661 48.8151 40.9579 49.1584 40.8144 49.5429C40.6707 49.9275 40.5845 50.312 40.5558 50.6965ZM51.3551 56.6499V50.5729C51.3551 49.6391 51.5705 48.8219 52.0014 48.1215C52.4466 47.4211 53.0569 46.8787 53.8324 46.4941C54.6079 46.0959 55.4912 45.8967 56.4821 45.8967C57.4874 45.8967 58.3707 46.0959 59.1317 46.4941C59.9073 46.8787 60.5104 47.4211 60.9413 48.1215C61.3865 48.8219 61.609 49.6391 61.609 50.5729V56.6499H59.6272V50.5935C59.6272 49.9618 59.4764 49.4193 59.1748 48.9661C58.8876 48.4992 58.4999 48.1421 58.0115 47.8949C57.5377 47.6477 57.0278 47.5241 56.4821 47.5241C55.9364 47.5241 55.4193 47.6477 54.931 47.8949C54.4571 48.1421 54.0694 48.4992 53.7678 48.9661C53.4806 49.4193 53.337 49.9618 53.337 50.5935V56.6499H51.3551ZM69.8182 56.8971C68.9852 56.8971 68.224 56.7735 67.5347 56.5263C66.8453 56.2654 66.2493 55.8877 65.7467 55.3933C65.2441 54.8989 64.8491 54.3084 64.5618 53.6217C64.289 52.9213 64.1525 52.1385 64.1525 51.2733C64.1525 50.1747 64.3823 49.2271 64.8419 48.4305C65.3159 47.6203 65.955 46.9954 66.7592 46.5559C67.5777 46.1165 68.4897 45.8967 69.4951 45.8967C70.0551 45.8967 70.5865 45.986 71.0891 46.1645C71.6062 46.3431 72.0656 46.5903 72.4678 46.9061C72.87 47.222 73.1859 47.5928 73.4157 48.0185H73.4587V41.6119H75.4406V51.3351C75.4406 52.5025 75.1892 53.505 74.6867 54.3427C74.1984 55.1667 73.5306 55.7985 72.6833 56.2379C71.8503 56.6774 70.8953 56.8971 69.8182 56.8971ZM69.8182 55.2697C70.4931 55.2697 71.1035 55.1118 71.6492 54.7959C72.1949 54.4801 72.6257 54.0337 72.9418 53.4569C73.272 52.8801 73.4372 52.2003 73.4372 51.4175C73.4372 50.621 73.272 49.9343 72.9418 49.3575C72.6257 48.767 72.1949 48.3138 71.6492 47.9979C71.1035 47.6821 70.4859 47.5241 69.7965 47.5241C69.1216 47.5241 68.5041 47.6889 67.944 48.0185C67.3983 48.3481 66.9602 48.8013 66.6299 49.3781C66.3139 49.9549 66.156 50.6279 66.156 51.3969C66.156 52.1935 66.3212 52.8801 66.6514 53.4569C66.9818 54.0337 67.4198 54.4801 67.9655 54.7959C68.5256 55.1118 69.1432 55.2697 69.8182 55.2697ZM84.0935 56.6499C82.887 56.6499 81.8172 56.4371 80.8836 56.0113C79.9502 55.5719 79.2177 54.9607 78.6863 54.1779C78.1694 53.3814 77.9109 52.4544 77.9109 51.3969C77.9109 50.3532 78.1334 49.4193 78.5787 48.5953C79.0239 47.7576 79.6413 47.0984 80.4313 46.6177C81.2212 46.1371 82.1403 45.8967 83.1886 45.8967C84.3232 45.8967 85.2639 46.1302 86.0106 46.5971C86.7718 47.0641 87.3392 47.6958 87.7127 48.4923C88.0859 49.2751 88.2729 50.1541 88.2729 51.1291C88.2729 51.2802 88.2653 51.4381 88.2514 51.6029C88.2514 51.7677 88.2368 51.9119 88.2083 52.0355H80.022C80.0938 52.681 80.3164 53.2303 80.6898 53.6835C81.0631 54.123 81.5371 54.4595 82.1116 54.6929C82.7003 54.9127 83.3466 55.0225 84.0504 55.0225H86.9155V56.6499H84.0935ZM80.0004 50.6965H86.2692C86.2692 50.4356 86.2404 50.1609 86.183 49.8725C86.1255 49.5704 86.0251 49.282 85.8814 49.0073C85.7378 48.7189 85.5438 48.4649 85.2998 48.2451C85.07 48.0117 84.7756 47.8263 84.4166 47.6889C84.0719 47.5516 83.6625 47.4829 83.1886 47.4829C82.686 47.4829 82.2408 47.5791 81.853 47.7713C81.4797 47.9499 81.1566 48.1971 80.8836 48.5129C80.6107 48.8151 80.4026 49.1584 80.259 49.5429C80.1153 49.9275 80.0291 50.312 80.0004 50.6965ZM96.1204 56.6499C94.9863 56.6499 93.9738 56.4165 93.0829 55.9495C92.1928 55.4826 91.4888 54.8577 90.9718 54.0749C90.4547 53.2784 90.1963 52.3857 90.1963 51.3969C90.1963 50.4081 90.4547 49.5223 90.9718 48.7395C91.4888 47.943 92.1928 47.3113 93.0829 46.8443C93.9738 46.3774 94.9863 46.1439 96.1204 46.1439H97.4128V47.7713H96.0557C95.3232 47.7713 94.6632 47.9361 94.0739 48.2657C93.5 48.5816 93.0399 49.0142 92.6952 49.5635C92.3651 50.1129 92.1997 50.724 92.1997 51.3969C92.1997 52.0699 92.3651 52.681 92.6952 53.2303C93.0399 53.7797 93.5 54.2191 94.0739 54.5487C94.6632 54.8646 95.3232 55.0225 96.0557 55.0225H97.4128V56.6499H96.1204Z" fill="white"/>
</g>
</g>
</g>
<path id="Vector_5" d="M2.99878 69.9832C10.7713 64.0155 19.1627 58.4077 27.8404 60.949C41.3196 64.8964 46.1371 82.5903 59.1747 86.9033C73.43 91.6192 85.8614 71.9047 94.6294 59.5609C98.9722 53.4467 102.446 47.0198 106.417 40.653" stroke="white" stroke-width="1.2" stroke-linecap="round"/>
</g>
</g>
</g>
</g>
<defs>
<clipPath id="clip0_62_1256">
<rect width="107" height="103" fill="white"/>
</clipPath>
</defs>
</svg>
